<?xml version="1.0" encoding="UTF-8" standalone="no"?>
<!DOCTYPE svg PUBLIC "-//W3C//DTD SVG 1.1//EN"
 "http://www.w3.org/Graphics/SVG/1.1/DTD/svg11.dtd">
<!-- Generated by graphviz version 2.29.20110812.0445 (20110812.0445)
 -->
<!-- Title: name Pages: 1 -->
<svg width="409pt" height="630pt"
 viewBox="0.00 0.00 409.00 630.00" xmlns="http://www.w3.org/2000/svg" xmlns:xlink="http://www.w3.org/1999/xlink">
<g id="graph1" class="graph" transform="scale(1 1) rotate(0) translate(4 626)">
<title>name</title>
<polygon fill="white" stroke="white" points="-4,5 -4,-626 406,-626 406,5 -4,5"/>
<!-- cccr_client_models_protocols_Organization -->
<g id="node1" class="node"><title>cccr_client_models_protocols_Organization</title>
<polygon fill="palegoldenrod" stroke="palegoldenrod" points="178,-4.5 178,-89.5 304,-89.5 304,-4.5 178,-4.5"/>
<polygon fill="#698b22" stroke="#698b22" points="178,-64 178,-89 304,-89 304,-64 178,-64"/>
<text text-anchor="start" x="217" y="-77.5" font-family="Helvetica Bold" font-size="8.00" fill="white">Organization</text>
<text text-anchor="start" x="228.5" y="-69.5" font-family="Helvetica Bold" font-size="8.00" fill="white">&lt;</text>
<text text-anchor="start" x="233.172" y="-69.5" font-family="Helvetica Italic" font-size="8.00" fill="white">Base</text>
<text text-anchor="start" x="250.727" y="-69.5" font-family="Helvetica Bold" font-size="8.00" fill="white">&gt;</text>
<text text-anchor="start" x="180" y="-55" font-family="Helvetica Bold" font-size="8.00" fill="#7b7b7b">id</text>
<text text-anchor="start" x="247" y="-55" font-family="Helvetica Bold" font-size="8.00" fill="#7b7b7b">AutoField</text>
<text text-anchor="start" x="180" y="-43" font-family="Helvetica Italic" font-size="8.00" fill="#7b7b7b">created</text>
<text text-anchor="start" x="247" y="-43" font-family="Helvetica Italic" font-size="8.00" fill="#7b7b7b">DateTimeField</text>
<text text-anchor="start" x="180" y="-31" font-family="Helvetica Italic" font-size="8.00" fill="#7b7b7b">modified</text>
<text text-anchor="start" x="247" y="-31" font-family="Helvetica Italic" font-size="8.00" fill="#7b7b7b">DateTimeField</text>
<text text-anchor="start" x="180" y="-19" font-family="Helvetica Bold" font-size="8.00">name</text>
<text text-anchor="start" x="247" y="-19" font-family="Helvetica Bold" font-size="8.00">CharField</text>
<text text-anchor="start" x="180" y="-7" font-family="Helvetica Bold" font-size="8.00">subject_id_label</text>
<text text-anchor="start" x="247" y="-7" font-family="Helvetica Bold" font-size="8.00">CharField</text>
</g>
<!-- cccr_client_models_protocols_DataSource -->
<g id="node2" class="node"><title>cccr_client_models_protocols_DataSource</title>
<polygon fill="palegoldenrod" stroke="palegoldenrod" points="7.5,-144.5 7.5,-253.5 142.5,-253.5 142.5,-144.5 7.5,-144.5"/>
<polygon fill="#698b22" stroke="#698b22" points="8,-228 8,-253 143,-253 143,-228 8,-228"/>
<text text-anchor="start" x="53.5" y="-241.5" font-family="Helvetica Bold" font-size="8.00" fill="white">DataSource</text>
<text text-anchor="start" x="63" y="-233.5" font-family="Helvetica Bold" font-size="8.00" fill="white">&lt;</text>
<text text-anchor="start" x="67.6719" y="-233.5" font-family="Helvetica Italic" font-size="8.00" fill="white">Base</text>
<text text-anchor="start" x="85.2266" y="-233.5" font-family="Helvetica Bold" font-size="8.00" fill="white">&gt;</text>
<text text-anchor="start" x="10" y="-219" font-family="Helvetica Bold" font-size="8.00" fill="#7b7b7b">id</text>
<text text-anchor="start" x="86" y="-219" font-family="Helvetica Bold" font-size="8.00" fill="#7b7b7b">AutoField</text>
<text text-anchor="start" x="10" y="-207" font-family="Helvetica Italic" font-size="8.00" fill="#7b7b7b">created</text>
<text text-anchor="start" x="86" y="-207" font-family="Helvetica Italic" font-size="8.00" fill="#7b7b7b">DateTimeField</text>
<text text-anchor="start" x="10" y="-195" font-family="Helvetica Italic" font-size="8.00" fill="#7b7b7b">modified</text>
<text text-anchor="start" x="86" y="-195" font-family="Helvetica Italic" font-size="8.00" fill="#7b7b7b">DateTimeField</text>
<text text-anchor="start" x="10" y="-183" font-family="Helvetica Bold" font-size="8.00">name</text>
<text text-anchor="start" x="86" y="-183" font-family="Helvetica Bold" font-size="8.00">CharField</text>
<text text-anchor="start" x="10" y="-171" font-family="Helvetica Bold" font-size="8.00">url</text>
<text text-anchor="start" x="86" y="-171" font-family="Helvetica Bold" font-size="8.00">URLField</text>
<text text-anchor="start" x="10" y="-159" font-family="Helvetica Bold" font-size="8.00">description</text>
<text text-anchor="start" x="86" y="-159" font-family="Helvetica Bold" font-size="8.00">TextField</text>
<text text-anchor="start" x="10" y="-147" font-family="Helvetica Bold" font-size="8.00">ehb_service_es_id</text>
<text text-anchor="start" x="86" y="-147" font-family="Helvetica Bold" font-size="8.00">IntegerField</text>
</g>
<!-- cccr_client_models_protocols_Protocol -->
<g id="node3" class="node"><title>cccr_client_models_protocols_Protocol</title>
<polygon fill="palegoldenrod" stroke="palegoldenrod" points="176.5,-144.5 176.5,-253.5 305.5,-253.5 305.5,-144.5 176.5,-144.5"/>
<polygon fill="#698b22" stroke="#698b22" points="177,-228 177,-253 306,-253 306,-228 177,-228"/>
<text text-anchor="start" x="225.5" y="-241.5" font-family="Helvetica Bold" font-size="8.00" fill="white">Protocol</text>
<text text-anchor="start" x="229" y="-233.5" font-family="Helvetica Bold" font-size="8.00" fill="white">&lt;</text>
<text text-anchor="start" x="233.672" y="-233.5" font-family="Helvetica Italic" font-size="8.00" fill="white">Base</text>
<text text-anchor="start" x="251.227" y="-233.5" font-family="Helvetica Bold" font-size="8.00" fill="white">&gt;</text>
<text text-anchor="start" x="179" y="-219" font-family="Helvetica Bold" font-size="8.00" fill="#7b7b7b">id</text>
<text text-anchor="start" x="236" y="-219" font-family="Helvetica Bold" font-size="8.00" fill="#7b7b7b">AutoField</text>
<text text-anchor="start" x="179" y="-207" font-family="Helvetica Italic" font-size="8.00" fill="#7b7b7b">created</text>
<text text-anchor="start" x="236" y="-207" font-family="Helvetica Italic" font-size="8.00" fill="#7b7b7b">DateTimeField</text>
<text text-anchor="start" x="179" y="-195" font-family="Helvetica Italic" font-size="8.00" fill="#7b7b7b">modified</text>
<text text-anchor="start" x="236" y="-195" font-family="Helvetica Italic" font-size="8.00" fill="#7b7b7b">DateTimeField</text>
<text text-anchor="start" x="179" y="-183" font-family="Helvetica Bold" font-size="8.00">name</text>
<text text-anchor="start" x="236" y="-183" font-family="Helvetica Bold" font-size="8.00">CharField</text>
<text text-anchor="start" x="179" y="-171" font-family="Helvetica Bold" font-size="8.00">data_sources</text>
<text text-anchor="start" x="236" y="-171" font-family="Helvetica Bold" font-size="8.00">ManyToManyField</text>
<text text-anchor="start" x="179" y="-159" font-family="Helvetica Bold" font-size="8.00" fill="#7b7b7b">users</text>
<text text-anchor="start" x="236" y="-159" font-family="Helvetica Bold" font-size="8.00" fill="#7b7b7b">ManyToManyField</text>
<text text-anchor="start" x="179" y="-147" font-family="Helvetica Bold" font-size="8.00" fill="#7b7b7b">organizations</text>
<text text-anchor="start" x="236" y="-147" font-family="Helvetica Bold" font-size="8.00" fill="#7b7b7b">ManyToManyField</text>
</g>
<!-- cccr_client_models_protocols_Protocol&#45;&gt;cccr_client_models_protocols_Organization -->
<g id="edge2" class="edge"><title>cccr_client_models_protocols_Protocol&#45;&gt;cccr_client_models_protocols_Organization</title>
<path fill="none" stroke="black" d="M241,-140.435C241,-128.422 241,-115.777 241,-103.828"/>
<polygon fill="black" stroke="black" points="244.5,-103.539 241,-93.5394 237.5,-103.539 244.5,-103.539"/>
<text text-anchor="middle" x="264.793" y="-113.8" font-family="Helvetica,sans-Serif" font-size="8.00">organizations</text>
</g>
<!-- cccr_client_models_protocols_ProtocolDataSource -->
<g id="node4" class="node"><title>cccr_client_models_protocols_ProtocolDataSource</title>
<polygon fill="palegoldenrod" stroke="palegoldenrod" points="55.5,-308.5 55.5,-441.5 196.5,-441.5 196.5,-308.5 55.5,-308.5"/>
<polygon fill="#698b22" stroke="#698b22" points="56,-416 56,-441 197,-441 197,-416 56,-416"/>
<text text-anchor="start" x="88.5" y="-429.5" font-family="Helvetica Bold" font-size="8.00" fill="white">ProtocolDataSource</text>
<text text-anchor="start" x="114" y="-421.5" font-family="Helvetica Bold" font-size="8.00" fill="white">&lt;</text>
<text text-anchor="start" x="118.672" y="-421.5" font-family="Helvetica Italic" font-size="8.00" fill="white">Base</text>
<text text-anchor="start" x="136.227" y="-421.5" font-family="Helvetica Bold" font-size="8.00" fill="white">&gt;</text>
<text text-anchor="start" x="58" y="-407" font-family="Helvetica Bold" font-size="8.00" fill="#7b7b7b">id</text>
<text text-anchor="start" x="140" y="-407" font-family="Helvetica Bold" font-size="8.00" fill="#7b7b7b">AutoField</text>
<text text-anchor="start" x="58" y="-395" font-family="Helvetica Italic" font-size="8.00" fill="#7b7b7b">created</text>
<text text-anchor="start" x="140" y="-395" font-family="Helvetica Italic" font-size="8.00" fill="#7b7b7b">DateTimeField</text>
<text text-anchor="start" x="58" y="-383" font-family="Helvetica Italic" font-size="8.00" fill="#7b7b7b">modified</text>
<text text-anchor="start" x="140" y="-383" font-family="Helvetica Italic" font-size="8.00" fill="#7b7b7b">DateTimeField</text>
<text text-anchor="start" x="58" y="-371" font-family="Helvetica Bold" font-size="8.00">protocol</text>
<text text-anchor="start" x="140" y="-371" font-family="Helvetica Bold" font-size="8.00">ForeignKey</text>
<text text-anchor="start" x="58" y="-359" font-family="Helvetica Bold" font-size="8.00">data_source</text>
<text text-anchor="start" x="140" y="-359" font-family="Helvetica Bold" font-size="8.00">ForeignKey</text>
<text text-anchor="start" x="58" y="-347" font-family="Helvetica Bold" font-size="8.00">path</text>
<text text-anchor="start" x="140" y="-347" font-family="Helvetica Bold" font-size="8.00">CharField</text>
<text text-anchor="start" x="58" y="-335" font-family="Helvetica Bold" font-size="8.00">driver</text>
<text text-anchor="start" x="140" y="-335" font-family="Helvetica Bold" font-size="8.00">IntegerField</text>
<text text-anchor="start" x="58" y="-323" font-family="Helvetica Bold" font-size="8.00" fill="#7b7b7b">driver_configuration</text>
<text text-anchor="start" x="140" y="-323" font-family="Helvetica Bold" font-size="8.00" fill="#7b7b7b">TextField</text>
<text text-anchor="start" x="58" y="-311" font-family="Helvetica Bold" font-size="8.00">display_label</text>
<text text-anchor="start" x="140" y="-311" font-family="Helvetica Bold" font-size="8.00">CharField</text>
</g>
<!-- cccr_client_models_protocols_ProtocolDataSource&#45;&gt;cccr_client_models_protocols_DataSource -->
<g id="edge6" class="edge"><title>cccr_client_models_protocols_ProtocolDataSource&#45;&gt;cccr_client_models_protocols_DataSource</title>
<path fill="none" stroke="black" d="M105.624,-304.48C102.033,-292.231 98.3015,-279.499 94.7292,-267.311"/>
<polygon fill="black" stroke="black" points="98.0757,-266.285 91.9042,-257.673 91.3583,-268.254 98.0757,-266.285"/>
<text text-anchor="middle" x="121.016" y="-277.8" font-family="Helvetica,sans-Serif" font-size="8.00">data_source</text>
</g>
<!-- cccr_client_models_protocols_ProtocolDataSource&#45;&gt;cccr_client_models_protocols_Protocol -->
<g id="edge4" class="edge"><title>cccr_client_models_protocols_ProtocolDataSource&#45;&gt;cccr_client_models_protocols_Protocol</title>
<path fill="none" stroke="black" d="M171.947,-304.48C180.283,-291.867 188.958,-278.742 197.229,-266.227"/>
<polygon fill="black" stroke="black" points="200.289,-267.946 202.883,-257.673 194.449,-264.086 200.289,-267.946"/>
<text text-anchor="middle" x="205.23" y="-277.8" font-family="Helvetica,sans-Serif" font-size="8.00">protocol</text>
</g>
<!-- cccr_client_models_protocols_ProtocolUser -->
<g id="node5" class="node"><title>cccr_client_models_protocols_ProtocolUser</title>
<polygon fill="palegoldenrod" stroke="palegoldenrod" points="295,-326.5 295,-423.5 393,-423.5 393,-326.5 295,-326.5"/>
<polygon fill="#698b22" stroke="#698b22" points="295,-398 295,-423 393,-423 393,-398 295,-398"/>
<text text-anchor="start" x="319" y="-411.5" font-family="Helvetica Bold" font-size="8.00" fill="white">ProtocolUser</text>
<text text-anchor="start" x="331.5" y="-403.5" font-family="Helvetica Bold" font-size="8.00" fill="white">&lt;</text>
<text text-anchor="start" x="336.172" y="-403.5" font-family="Helvetica Italic" font-size="8.00" fill="white">Base</text>
<text text-anchor="start" x="353.727" y="-403.5" font-family="Helvetica Bold" font-size="8.00" fill="white">&gt;</text>
<text text-anchor="start" x="297" y="-389" font-family="Helvetica Bold" font-size="8.00" fill="#7b7b7b">id</text>
<text text-anchor="start" x="336" y="-389" font-family="Helvetica Bold" font-size="8.00" fill="#7b7b7b">AutoField</text>
<text text-anchor="start" x="297" y="-377" font-family="Helvetica Italic" font-size="8.00" fill="#7b7b7b">created</text>
<text text-anchor="start" x="336" y="-377" font-family="Helvetica Italic" font-size="8.00" fill="#7b7b7b">DateTimeField</text>
<text text-anchor="start" x="297" y="-365" font-family="Helvetica Italic" font-size="8.00" fill="#7b7b7b">modified</text>
<text text-anchor="start" x="336" y="-365" font-family="Helvetica Italic" font-size="8.00" fill="#7b7b7b">DateTimeField</text>
<text text-anchor="start" x="297" y="-353" font-family="Helvetica Bold" font-size="8.00">protocol</text>
<text text-anchor="start" x="336" y="-353" font-family="Helvetica Bold" font-size="8.00">ForeignKey</text>
<text text-anchor="start" x="297" y="-341" font-family="Helvetica Bold" font-size="8.00">user</text>
<text text-anchor="start" x="336" y="-341" font-family="Helvetica Bold" font-size="8.00">ForeignKey</text>
<text text-anchor="start" x="297" y="-329" font-family="Helvetica Bold" font-size="8.00">role</text>
<text text-anchor="start" x="336" y="-329" font-family="Helvetica Bold" font-size="8.00">IntegerField</text>
</g>
<!-- cccr_client_models_protocols_ProtocolUser&#45;&gt;cccr_client_models_protocols_Protocol -->
<g id="edge8" class="edge"><title>cccr_client_models_protocols_ProtocolUser&#45;&gt;cccr_client_models_protocols_Protocol</title>
<path fill="none" stroke="black" d="M313.375,-322.265C302.983,-304.71 291.226,-284.848 280.256,-266.316"/>
<polygon fill="black" stroke="black" points="283.217,-264.448 275.111,-257.625 277.194,-268.013 283.217,-264.448"/>
<text text-anchor="middle" x="304.23" y="-277.8" font-family="Helvetica,sans-Serif" font-size="8.00">protocol</text>
</g>
<!-- django_contrib_auth_models_User -->
<g id="node11" class="node"><title>django_contrib_auth_models_User</title>
<polygon fill="palegoldenrod" stroke="palegoldenrod" points="345.5,-190.5 345.5,-207.5 372.5,-207.5 372.5,-190.5 345.5,-190.5"/>
<polygon fill="#698b22" stroke="#698b22" points="346,-190 346,-207 373,-207 373,-190 346,-190"/>
<text text-anchor="start" x="351" y="-195.5" font-family="Helvetica Bold" font-size="8.00" fill="white">User</text>
</g>
<!-- cccr_client_models_protocols_ProtocolUser&#45;&gt;django_contrib_auth_models_User -->
<g id="edge10" class="edge"><title>cccr_client_models_protocols_ProtocolUser&#45;&gt;django_contrib_auth_models_User</title>
<path fill="none" stroke="black" d="M348.46,-322.265C351.15,-291.06 354.468,-252.569 356.654,-227.208"/>
<polygon fill="black" stroke="black" points="360.145,-227.466 357.517,-217.202 353.171,-226.865 360.145,-227.466"/>
<text text-anchor="middle" x="360.781" y="-277.8" font-family="Helvetica,sans-Serif" font-size="8.00">user</text>
</g>
<!-- cccr_client_models_protocols_ProtocolUserCredentials -->
<g id="node6" class="node"><title>cccr_client_models_protocols_ProtocolUserCredentials</title>
<polygon fill="palegoldenrod" stroke="palegoldenrod" points="164.5,-496.5 164.5,-617.5 317.5,-617.5 317.5,-496.5 164.5,-496.5"/>
<polygon fill="#698b22" stroke="#698b22" points="165,-592 165,-617 318,-617 318,-592 165,-592"/>
<text text-anchor="start" x="195" y="-605.5" font-family="Helvetica Bold" font-size="8.00" fill="white">ProtocolUserCredentials</text>
<text text-anchor="start" x="229" y="-597.5" font-family="Helvetica Bold" font-size="8.00" fill="white">&lt;</text>
<text text-anchor="start" x="233.672" y="-597.5" font-family="Helvetica Italic" font-size="8.00" fill="white">Base</text>
<text text-anchor="start" x="251.227" y="-597.5" font-family="Helvetica Bold" font-size="8.00" fill="white">&gt;</text>
<text text-anchor="start" x="167" y="-583" font-family="Helvetica Bold" font-size="8.00" fill="#7b7b7b">id</text>
<text text-anchor="start" x="261" y="-583" font-family="Helvetica Bold" font-size="8.00" fill="#7b7b7b">AutoField</text>
<text text-anchor="start" x="167" y="-571" font-family="Helvetica Italic" font-size="8.00" fill="#7b7b7b">created</text>
<text text-anchor="start" x="261" y="-571" font-family="Helvetica Italic" font-size="8.00" fill="#7b7b7b">DateTimeField</text>
<text text-anchor="start" x="167" y="-559" font-family="Helvetica Italic" font-size="8.00" fill="#7b7b7b">modified</text>
<text text-anchor="start" x="261" y="-559" font-family="Helvetica Italic" font-size="8.00" fill="#7b7b7b">DateTimeField</text>
<text text-anchor="start" x="167" y="-547" font-family="Helvetica Bold" font-size="8.00">protocol</text>
<text text-anchor="start" x="261" y="-547" font-family="Helvetica Bold" font-size="8.00">ForeignKey</text>
<text text-anchor="start" x="167" y="-535" font-family="Helvetica Bold" font-size="8.00">data_source</text>
<text text-anchor="start" x="261" y="-535" font-family="Helvetica Bold" font-size="8.00">ForeignKey</text>
<text text-anchor="start" x="167" y="-523" font-family="Helvetica Bold" font-size="8.00">user</text>
<text text-anchor="start" x="261" y="-523" font-family="Helvetica Bold" font-size="8.00">ForeignKey</text>
<text text-anchor="start" x="167" y="-511" font-family="Helvetica Bold" font-size="8.00" fill="#7b7b7b">data_source_username</text>
<text text-anchor="start" x="261" y="-511" font-family="Helvetica Bold" font-size="8.00" fill="#7b7b7b">CharField</text>
<text text-anchor="start" x="167" y="-499" font-family="Helvetica Bold" font-size="8.00">data_source_password</text>
<text text-anchor="start" x="261" y="-499" font-family="Helvetica Bold" font-size="8.00">CharField</text>
</g>
<!-- cccr_client_models_protocols_ProtocolUserCredentials&#45;&gt;cccr_client_models_protocols_Protocol -->
<g id="edge12" class="edge"><title>cccr_client_models_protocols_ProtocolUserCredentials&#45;&gt;cccr_client_models_protocols_Protocol</title>
<path fill="none" stroke="black" d="M241,-492.354C241,-429.043 241,-332.259 241,-267.597"/>
<polygon fill="black" stroke="black" points="244.5,-267.505 241,-257.505 237.5,-267.505 244.5,-267.505"/>
<text text-anchor="middle" x="255.23" y="-371.8" font-family="Helvetica,sans-Serif" font-size="8.00">protocol</text>
</g>
<!-- cccr_client_models_protocols_ProtocolUserCredentials&#45;&gt;cccr_client_models_protocols_ProtocolDataSource -->
<g id="edge14" class="edge"><title>cccr_client_models_protocols_ProtocolUserCredentials&#45;&gt;cccr_client_models_protocols_ProtocolDataSource</title>
<path fill="none" stroke="black" d="M195.138,-492.365C190.951,-486.207 186.835,-480.015 182.969,-474 178.854,-467.598 174.682,-460.893 170.565,-454.124"/>
<polygon fill="black" stroke="black" points="173.547,-452.291 165.387,-445.533 167.552,-455.905 173.547,-452.291"/>
<text text-anchor="middle" x="205.016" y="-465.8" font-family="Helvetica,sans-Serif" font-size="8.00">data_source</text>
</g>
<!-- cccr_client_models_protocols_ProtocolUserCredentials&#45;&gt;cccr_client_models_protocols_ProtocolUser -->
<g id="edge16" class="edge"><title>cccr_client_models_protocols_ProtocolUserCredentials&#45;&gt;cccr_client_models_protocols_ProtocolUser</title>
<path fill="none" stroke="black" d="M277.459,-492.285C287.759,-474.286 298.938,-454.749 309.141,-436.918"/>
<polygon fill="black" stroke="black" points="312.449,-438.185 314.378,-427.767 306.373,-434.708 312.449,-438.185"/>
<text text-anchor="middle" x="300.781" y="-465.8" font-family="Helvetica,sans-Serif" font-size="8.00">user</text>
</g>
</g>
</svg>
